<svg width="32" height="32" viewBox="0 0 32 32" fill="none" xmlns="http://www.w3.org/2000/svg">
<rect width="32" height="32" rx="4" fill="#3B82F6"/>
<path fill-rule="evenodd" clip-rule="evenodd" d="M14.6964 5.00001C16.3075 4.99779 17.8874 5.44376 19.2596 6.28807C20.6318 7.13238 21.742 8.34173 22.4662 9.7809C23.1904 11.2201 23.5 12.8323 23.3604 14.4374C23.2207 16.0424 22.6374 17.577 21.6756 18.8695L26.3704 22.8405C26.5587 23.0012 26.7117 23.1991 26.8199 23.4219C26.928 23.6446 26.9888 23.8873 26.9986 24.1347C27.0084 24.3821 26.9668 24.6288 26.8766 24.8594C26.7864 25.0899 26.6495 25.2993 26.4744 25.4744C26.2993 25.6495 26.0899 25.7864 25.8594 25.8766C25.6288 25.9668 25.3821 26.0084 25.1347 25.9986C24.8873 25.9888 24.6446 25.928 24.4219 25.8199C24.1991 25.7118 24.0012 25.5587 23.8405 25.3704L19.8685 20.6763C18.7635 21.4953 17.4799 22.0404 16.1232 22.2667C14.7666 22.4931 13.3755 22.3943 12.0645 21.9785C10.7534 21.5626 9.55975 20.8416 8.58158 19.8746C7.60341 18.9077 6.86865 17.7224 6.4377 16.4162C6.00675 15.1101 5.8919 13.7203 6.10259 12.3611C6.31329 11.0019 6.84351 9.71206 7.64969 8.59766C8.45586 7.48325 9.51498 6.57606 10.74 5.95064C11.965 5.32522 13.3209 4.99941 14.6964 5.00001ZM14.6964 20.5623C16.0543 20.5623 17.3817 20.1596 18.5107 19.4052C19.6398 18.6508 20.5198 17.5785 21.0394 16.324C21.5591 15.0694 21.6951 13.689 21.4301 12.3571C21.1652 11.0253 20.5113 9.80197 19.5512 8.84178C18.591 7.8816 17.3676 7.2277 16.0358 6.96279C14.704 6.69787 13.3235 6.83384 12.069 7.35349C10.8144 7.87314 9.74217 8.75313 8.98776 9.88219C8.23334 11.0113 7.83068 12.3387 7.83068 13.6966C7.83069 15.5175 8.55404 17.2638 9.84161 18.5513C11.1292 19.8389 12.8755 20.5623 14.6964 20.5623Z" fill="white"/>
</svg>
